<svg width="24" height="24" viewBox="0 0 24 24" fill="none" xmlns="http://www.w3.org/2000/svg">
<path d="M23.3856 21.6176L16.8566 15.0886C18.2817 13.2152 18.942 10.8705 18.704 8.52873C18.466 6.18698 17.3473 4.02306 15.5744 2.47477C13.8015 0.926487 11.5066 0.109425 9.15416 0.188891C6.80169 0.268357 4.56722 1.23842 2.90282 2.90282C1.23842 4.56722 0.268357 6.80169 0.188891 9.15416C0.109425 11.5066 0.926487 13.8015 2.47477 15.5744C4.02306 17.3473 6.18698 18.466 8.52873 18.704C10.8705 18.942 13.2152 18.2817 15.0886 16.8566L21.6176 23.3856C21.854 23.6162 22.1713 23.7453 22.5016 23.7453C22.8319 23.7453 23.1491 23.6162 23.3856 23.3856C23.6198 23.151 23.7514 22.8331 23.7514 22.5016C23.7514 22.1701 23.6198 21.8521 23.3856 21.6176V21.6176ZM2.75159 9.49859C2.75159 8.16356 3.14747 6.85852 3.88917 5.74849C4.63087 4.63846 5.68507 3.77329 6.91847 3.2624C8.15188 2.75151 9.50907 2.61784 10.8184 2.87829C12.1278 3.13874 13.3306 3.78161 14.2746 4.72562C15.2186 5.66962 15.8614 6.87236 16.1219 8.18173C16.3823 9.4911 16.2487 10.8483 15.7378 12.0817C15.2269 13.3151 14.3617 14.3693 13.2517 15.111C12.1417 15.8527 10.8366 16.2486 9.50159 16.2486C7.71203 16.2465 5.99637 15.5346 4.73095 14.2692C3.46554 13.0038 2.7537 11.2881 2.75159 9.49859V9.49859Z" fill="#44A3EA"/>
</svg>
